<svg width="134" height="30" viewBox="0 0 134 30" fill="none" xmlns="http://www.w3.org/2000/svg">
<rect width="134" height="30" rx="15" fill="#3B8E74"/>
<path d="M12.512 19.5V10.26H15.802C16.894 10.26 17.692 10.4887 18.196 10.946C18.7 11.4033 18.952 12.024 18.952 12.808C18.952 13.2747 18.8167 13.6993 18.546 14.082C18.2753 14.4553 17.8927 14.6933 17.398 14.796V14.81C17.9487 14.9127 18.3827 15.1647 18.7 15.566C19.0267 15.958 19.19 16.406 19.19 16.91C19.19 17.694 18.896 18.324 18.308 18.8C17.72 19.2667 16.88 19.5 15.788 19.5H12.512ZM13.632 18.45H16.054C16.7167 18.45 17.2067 18.3147 17.524 18.044C17.8507 17.7733 18.014 17.3953 18.014 16.91C18.014 16.4153 17.8507 16.0373 17.524 15.776C17.2067 15.5053 16.7167 15.37 16.054 15.37H13.632V18.45ZM13.632 14.32H15.816C17.1227 14.32 17.776 13.816 17.776 12.808C17.776 11.8093 17.1227 11.31 15.816 11.31H13.632V14.32ZM23.9825 19.64C23.5345 19.64 23.1098 19.556 22.7085 19.388C22.3165 19.22 21.9945 18.9493 21.7425 18.576C21.4998 18.1933 21.3785 17.6987 21.3785 17.092V12.5H22.4985V16.798C22.4985 17.5073 22.6525 17.9973 22.9605 18.268C23.2685 18.5293 23.7025 18.66 24.2625 18.66C24.5238 18.66 24.7805 18.618 25.0325 18.534C25.2845 18.4407 25.5085 18.3007 25.7045 18.114C25.9098 17.918 26.0685 17.6707 26.1805 17.372C26.3018 17.0733 26.3625 16.7187 26.3625 16.308V12.5H27.4825V19.5H26.5025L26.4325 18.436C26.1898 18.856 25.8585 19.164 25.4385 19.36C25.0278 19.5467 24.5425 19.64 23.9825 19.64ZM35.8431 12.5L32.5531 20.676C32.3758 21.1333 32.1798 21.4927 31.9651 21.754C31.7598 22.0247 31.5264 22.216 31.2651 22.328C31.0131 22.4493 30.7191 22.51 30.3831 22.51C30.0658 22.51 29.7718 22.4633 29.5011 22.37C29.2398 22.286 29.0064 22.1693 28.8011 22.02L29.1091 21.04C29.2958 21.208 29.4918 21.3293 29.6971 21.404C29.9118 21.488 30.1218 21.53 30.3271 21.53C30.5698 21.53 30.7984 21.4553 31.0131 21.306C31.2278 21.1567 31.4238 20.8533 31.6011 20.396L31.9651 19.486L31.2651 17.82L29.0391 12.5H30.3131L32.0631 17.064L32.4971 18.31L33.0011 16.924L34.6391 12.5H35.8431ZM48.0471 10.26V11.31H44.8271V19.5H43.7071V11.31H40.4871V10.26H48.0471ZM50.1315 11.156C49.8795 11.156 49.6742 11.0813 49.5155 10.932C49.3662 10.7733 49.2915 10.568 49.2915 10.316C49.2915 10.064 49.3662 9.86333 49.5155 9.714C49.6742 9.55533 49.8795 9.476 50.1315 9.476C50.3835 9.476 50.5842 9.55533 50.7335 9.714C50.8922 9.86333 50.9715 10.064 50.9715 10.316C50.9715 10.568 50.8922 10.7733 50.7335 10.932C50.5842 11.0813 50.3835 11.156 50.1315 11.156ZM50.6915 12.5V19.5H49.5715V12.5H50.6915ZM56.1883 12.36C56.6736 12.36 57.0983 12.4347 57.4623 12.584C57.8356 12.7333 58.1576 12.948 58.4283 13.228C58.6989 13.508 58.9183 13.8393 59.0863 14.222L58.0223 14.726C57.8729 14.278 57.6443 13.9373 57.3363 13.704C57.0376 13.4613 56.6456 13.34 56.1603 13.34C55.6936 13.34 55.2923 13.4473 54.9563 13.662C54.6203 13.8673 54.3636 14.1707 54.1863 14.572C54.0089 14.964 53.9203 15.44 53.9203 16C53.9203 16.5507 54.0089 17.0267 54.1863 17.428C54.3636 17.8293 54.6203 18.1373 54.9563 18.352C55.2923 18.5573 55.6936 18.66 56.1603 18.66C56.5243 18.66 56.8369 18.604 57.0983 18.492C57.3689 18.38 57.5883 18.2167 57.7563 18.002C57.9336 17.7873 58.0549 17.526 58.1203 17.218L59.1563 17.582C58.9976 18.0113 58.7783 18.38 58.4983 18.688C58.2276 18.996 57.8963 19.234 57.5043 19.402C57.1216 19.5607 56.6829 19.64 56.1883 19.64C55.5349 19.64 54.9516 19.4953 54.4383 19.206C53.9249 18.9167 53.5236 18.5013 53.2343 17.96C52.9449 17.4093 52.8003 16.756 52.8003 16C52.8003 15.244 52.9449 14.5953 53.2343 14.054C53.5236 13.5033 53.9249 13.0833 54.4383 12.794C54.9516 12.5047 55.5349 12.36 56.1883 12.36ZM67.2703 12.5L64.2463 15.524L63.9803 15.79L61.6843 18.086V16.686L65.8563 12.5H67.2703ZM62.2443 9.28V19.5H61.1243V9.28H62.2443ZM64.3443 14.95L67.4383 19.5H66.0803L63.4063 15.58L64.3443 14.95ZM71.7475 19.64C71.0849 19.64 70.4922 19.4953 69.9695 19.206C69.4562 18.9167 69.0549 18.5013 68.7655 17.96C68.4762 17.4093 68.3315 16.756 68.3315 16C68.3315 15.244 68.4762 14.5953 68.7655 14.054C69.0549 13.5033 69.4515 13.0833 69.9555 12.794C70.4595 12.5047 71.0335 12.36 71.6775 12.36C72.3309 12.36 72.8862 12.5 73.3435 12.78C73.8102 13.06 74.1649 13.4427 74.4075 13.928C74.6502 14.404 74.7715 14.9407 74.7715 15.538C74.7715 15.6967 74.7669 15.8413 74.7575 15.972C74.7482 16.1027 74.7342 16.2193 74.7155 16.322H69.0595V15.328H74.2255L73.6515 15.44C73.6515 14.768 73.4649 14.25 73.0915 13.886C72.7275 13.522 72.2469 13.34 71.6495 13.34C71.1922 13.34 70.7955 13.4473 70.4595 13.662C70.1329 13.8673 69.8762 14.1707 69.6895 14.572C69.5122 14.964 69.4235 15.44 69.4235 16C69.4235 16.5507 69.5169 17.0267 69.7035 17.428C69.8902 17.8293 70.1515 18.1373 70.4875 18.352C70.8329 18.5573 71.2435 18.66 71.7195 18.66C72.2329 18.66 72.6482 18.562 72.9655 18.366C73.2922 18.17 73.5535 17.904 73.7495 17.568L74.6315 18.086C74.4542 18.4033 74.2255 18.6787 73.9455 18.912C73.6749 19.1453 73.3529 19.3273 72.9795 19.458C72.6155 19.5793 72.2049 19.64 71.7475 19.64ZM78.3485 10.512V17.568C78.3485 17.9133 78.4465 18.17 78.6425 18.338C78.8385 18.506 79.0905 18.59 79.3985 18.59C79.6692 18.59 79.9025 18.5433 80.0985 18.45C80.2945 18.3567 80.4719 18.2307 80.6305 18.072L81.0225 19.01C80.8079 19.206 80.5512 19.36 80.2525 19.472C79.9632 19.584 79.6272 19.64 79.2445 19.64C78.8899 19.64 78.5585 19.5793 78.2505 19.458C77.9425 19.3273 77.6952 19.1267 77.5085 18.856C77.3312 18.576 77.2379 18.212 77.2285 17.764V10.82L78.3485 10.512ZM80.8965 12.5V13.466H75.8285V12.5H80.8965ZM85.0818 19.64C84.4004 19.64 83.7704 19.4953 83.1918 19.206C82.6224 18.9167 82.1838 18.506 81.8758 17.974L82.8278 17.288C83.0331 17.7173 83.3318 18.0533 83.7238 18.296C84.1251 18.5387 84.6058 18.66 85.1658 18.66C85.6604 18.66 86.0478 18.5667 86.3278 18.38C86.6078 18.184 86.7478 17.932 86.7478 17.624C86.7478 17.428 86.6824 17.2507 86.5518 17.092C86.4304 16.924 86.1924 16.8027 85.8378 16.728L84.1578 16.378C83.4764 16.238 82.9864 16.0047 82.6878 15.678C82.3984 15.3513 82.2538 14.9453 82.2538 14.46C82.2538 14.0773 82.3611 13.7273 82.5758 13.41C82.7998 13.0927 83.1124 12.8407 83.5138 12.654C83.9244 12.458 84.4051 12.36 84.9558 12.36C85.6464 12.36 86.2298 12.4953 86.7058 12.766C87.1818 13.0367 87.5364 13.4193 87.7698 13.914L86.8318 14.53C86.6731 14.1193 86.4164 13.8207 86.0618 13.634C85.7071 13.438 85.3384 13.34 84.9558 13.34C84.6198 13.34 84.3304 13.3867 84.0878 13.48C83.8544 13.5733 83.6724 13.704 83.5418 13.872C83.4204 14.0307 83.3598 14.2127 83.3598 14.418C83.3598 14.6233 83.4298 14.8147 83.5698 14.992C83.7098 15.16 83.9711 15.2813 84.3538 15.356L86.1038 15.72C86.7571 15.8507 87.2144 16.0653 87.4758 16.364C87.7371 16.6627 87.8678 17.0267 87.8678 17.456C87.8678 17.8947 87.7511 18.282 87.5178 18.618C87.2844 18.9447 86.9578 19.1967 86.5378 19.374C86.1178 19.5513 85.6324 19.64 85.0818 19.64Z" fill="white"/>
<path d="M108 9L114 15L108 21" stroke="#F3F3F3" stroke-width="2" stroke-linecap="round" stroke-linejoin="round"/>
</svg>
