<svg width="165" height="50" viewBox="0 0 165 50" fill="none" xmlns="http://www.w3.org/2000/svg">
<rect x="0.5" width="164" height="50" rx="20" fill="#3B8E74"/>
<path d="M32.04 18.26C33.316 18.26 34.416 18.524 35.34 19.052C36.264 19.5653 37.034 20.328 37.65 21.34L36.176 22.484C35.6333 21.5453 35.0173 20.8853 34.328 20.504C33.6533 20.108 32.832 19.91 31.864 19.91C31.0867 19.91 30.4413 20.02 29.928 20.24C29.4293 20.46 29.0627 20.7533 28.828 21.12C28.5933 21.472 28.476 21.8753 28.476 22.33C28.476 22.8433 28.6373 23.298 28.96 23.694C29.2827 24.0753 29.928 24.376 30.896 24.596L34.042 25.3C35.4353 25.608 36.4033 26.0773 36.946 26.708C37.5033 27.324 37.782 28.094 37.782 29.018C37.782 29.8393 37.5473 30.5727 37.078 31.218C36.6233 31.8487 35.978 32.34 35.142 32.692C34.306 33.044 33.3233 33.22 32.194 33.22C31.138 33.22 30.2067 33.0807 29.4 32.802C28.608 32.5087 27.926 32.12 27.354 31.636C26.782 31.152 26.3127 30.6093 25.946 30.008L27.486 28.754C27.7647 29.3113 28.124 29.8027 28.564 30.228C29.004 30.6533 29.532 30.9833 30.148 31.218C30.7787 31.4527 31.4973 31.57 32.304 31.57C33.052 31.57 33.6973 31.482 34.24 31.306C34.7973 31.1153 35.2227 30.844 35.516 30.492C35.8093 30.1253 35.956 29.6853 35.956 29.172C35.956 28.7027 35.802 28.2847 35.494 27.918C35.186 27.5367 34.6067 27.2507 33.756 27.06L30.346 26.29C29.4513 26.0847 28.7253 25.806 28.168 25.454C27.6253 25.0873 27.2293 24.662 26.98 24.178C26.7453 23.6793 26.628 23.144 26.628 22.572C26.628 21.7947 26.8407 21.0833 27.266 20.438C27.706 19.778 28.3293 19.25 29.136 18.854C29.9573 18.458 30.9253 18.26 32.04 18.26ZM41.9123 19.888C41.5163 19.888 41.1937 19.7707 40.9443 19.536C40.7097 19.2867 40.5923 18.964 40.5923 18.568C40.5923 18.172 40.7097 17.8567 40.9443 17.622C41.1937 17.3727 41.5163 17.248 41.9123 17.248C42.3083 17.248 42.6237 17.3727 42.8583 17.622C43.1077 17.8567 43.2323 18.172 43.2323 18.568C43.2323 18.964 43.1077 19.2867 42.8583 19.536C42.6237 19.7707 42.3083 19.888 41.9123 19.888ZM42.7923 22V33H41.0323V22H42.7923ZM56.1381 19.976L56.5341 21.538C56.5194 21.538 56.4974 21.538 56.4681 21.538C56.4387 21.538 56.4094 21.538 56.3801 21.538C55.6614 21.538 55.1041 21.6847 54.7081 21.978C54.3267 22.2567 54.1361 22.7113 54.1361 23.342L53.0581 22.792C53.0581 22.22 53.1901 21.7213 53.4541 21.296C53.7181 20.8707 54.0774 20.548 54.5321 20.328C54.9867 20.0933 55.4854 19.976 56.0281 19.976C56.0427 19.976 56.0574 19.976 56.0721 19.976C56.1014 19.976 56.1234 19.976 56.1381 19.976ZM52.7941 31.592C53.8354 31.592 54.6494 31.834 55.2361 32.318C55.8227 32.7873 56.1161 33.418 56.1161 34.21C56.1161 34.9287 55.8741 35.552 55.3901 36.08C54.9207 36.608 54.2827 37.0113 53.4761 37.29C52.6841 37.5833 51.7894 37.73 50.7921 37.73C49.0614 37.73 47.7634 37.4367 46.8981 36.85C46.0474 36.2633 45.6221 35.5593 45.6221 34.738C45.6221 34.1513 45.8127 33.6233 46.1941 33.154C46.5901 32.6993 47.2501 32.4427 48.1741 32.384L48.0201 32.714C47.5214 32.582 47.0961 32.362 46.7441 32.054C46.4067 31.7313 46.2381 31.2693 46.2381 30.668C46.2381 30.0667 46.4581 29.5533 46.8981 29.128C47.3527 28.688 48.0201 28.4167 48.9001 28.314L50.0661 28.908H49.8461C49.1274 28.9813 48.6141 29.1647 48.3061 29.458C48.0127 29.7367 47.8661 30.0447 47.8661 30.382C47.8661 30.7927 48.0127 31.1007 48.3061 31.306C48.6141 31.4967 49.0394 31.592 49.5821 31.592H52.7941ZM50.7701 36.256C51.6207 36.256 52.3174 36.168 52.8601 35.992C53.4174 35.816 53.8281 35.5887 54.0921 35.31C54.3561 35.0313 54.4881 34.7307 54.4881 34.408C54.4881 34.012 54.3267 33.6967 54.0041 33.462C53.6961 33.2273 53.1314 33.11 52.3101 33.11H48.9221C48.4527 33.11 48.0567 33.2273 47.7341 33.462C47.4114 33.7113 47.2501 34.0487 47.2501 34.474C47.2501 35.0167 47.5581 35.4493 48.1741 35.772C48.8047 36.0947 49.6701 36.256 50.7701 36.256ZM50.6161 21.78C51.4961 21.78 52.2734 21.9413 52.9481 22.264C53.6374 22.572 54.1727 23.0047 54.5541 23.562C54.9354 24.1193 55.1261 24.7647 55.1261 25.498C55.1261 26.2167 54.9354 26.862 54.5541 27.434C54.1727 27.9913 53.6374 28.4313 52.9481 28.754C52.2734 29.062 51.4961 29.216 50.6161 29.216C49.1641 29.216 48.0494 28.8713 47.2721 28.182C46.4947 27.478 46.1061 26.5833 46.1061 25.498C46.1061 24.7647 46.2967 24.1193 46.6781 23.562C47.0741 23.0047 47.6094 22.572 48.2841 22.264C48.9587 21.9413 49.7361 21.78 50.6161 21.78ZM50.6161 23.21C49.8534 23.21 49.2154 23.4227 48.7021 23.848C48.1887 24.2587 47.9321 24.8087 47.9321 25.498C47.9321 26.1727 48.1887 26.7227 48.7021 27.148C49.2154 27.5733 49.8534 27.786 50.6161 27.786C51.3787 27.786 52.0167 27.5733 52.5301 27.148C53.0434 26.7227 53.3001 26.1727 53.3001 25.498C53.3001 24.8087 53.0434 24.2587 52.5301 23.848C52.0167 23.4227 51.3787 23.21 50.6161 23.21ZM58.5851 33V22H60.1251L60.2791 24.464L59.9931 24.222C60.2277 23.6353 60.5431 23.166 60.9391 22.814C61.3351 22.4473 61.7897 22.1833 62.3031 22.022C62.8311 21.8607 63.3737 21.78 63.9311 21.78C64.7231 21.78 65.4417 21.934 66.0871 22.242C66.7324 22.5353 67.2457 22.99 67.6271 23.606C68.0231 24.222 68.2211 25.0067 68.2211 25.96V33H66.4611V26.576C66.4611 25.3587 66.1971 24.5153 65.6691 24.046C65.1557 23.562 64.5177 23.32 63.7551 23.32C63.2271 23.32 62.6991 23.4447 62.1711 23.694C61.6431 23.9433 61.2031 24.3467 60.8511 24.904C60.5137 25.4613 60.3451 26.2093 60.3451 27.148V33H58.5851ZM83.6862 33.22C82.9822 33.22 82.3149 33.088 81.6842 32.824C81.0682 32.56 80.5622 32.1347 80.1662 31.548C79.7849 30.9467 79.5942 30.1693 79.5942 29.216V22H81.3542V28.754C81.3542 29.8687 81.5962 30.6387 82.0802 31.064C82.5642 31.4747 83.2462 31.68 84.1262 31.68C84.5369 31.68 84.9402 31.614 85.3362 31.482C85.7322 31.3353 86.0842 31.1153 86.3922 30.822C86.7149 30.514 86.9642 30.1253 87.1402 29.656C87.3309 29.1867 87.4262 28.6293 87.4262 27.984V22H89.1862V33H87.6462L87.5362 31.328C87.1549 31.988 86.6342 32.472 85.9742 32.78C85.3289 33.0733 84.5662 33.22 83.6862 33.22ZM93.2823 37.62V22H94.8223L94.9763 24.684L94.7343 24.376C94.925 23.8627 95.211 23.4153 95.5923 23.034C95.9737 22.638 96.4357 22.33 96.9783 22.11C97.521 21.89 98.1077 21.78 98.7383 21.78C99.633 21.78 100.454 22.0073 101.202 22.462C101.965 22.9167 102.574 23.5693 103.028 24.42C103.483 25.2707 103.71 26.2973 103.71 27.5C103.71 28.688 103.476 29.7147 103.006 30.58C102.552 31.4307 101.943 32.0833 101.18 32.538C100.418 32.9927 99.5817 33.22 98.6723 33.22C97.763 33.22 96.9637 33 96.2743 32.56C95.5997 32.1053 95.1157 31.5333 94.8223 30.844L95.0423 30.514V37.62H93.2823ZM98.4963 31.68C99.5817 31.68 100.425 31.2987 101.026 30.536C101.642 29.7733 101.95 28.7613 101.95 27.5C101.95 26.2387 101.65 25.2267 101.048 24.464C100.462 23.7013 99.633 23.32 98.5623 23.32C97.8583 23.32 97.2423 23.496 96.7143 23.848C96.1863 24.1853 95.7757 24.6693 95.4823 25.3C95.189 25.916 95.0423 26.6493 95.0423 27.5C95.0423 28.336 95.1817 29.0693 95.4603 29.7C95.7537 30.3307 96.157 30.822 96.6703 31.174C97.1983 31.5113 97.807 31.68 98.4963 31.68Z" fill="white"/>
<path d="M125 19L131 25L125 31" stroke="#F3F3F3" stroke-width="2" stroke-linecap="round" stroke-linejoin="round"/>
</svg>
