<svg width="96" height="25" viewBox="0 0 96 25" fill="none" xmlns="http://www.w3.org/2000/svg">
<path d="M12.0308 24.7582V0H15.0878V22.0986H26.8228V24.7582H12.0308Z" fill="white"/>
<path d="M15.1371 24.7582V0H0V2.65957H12.0801V11.0251H1.13405V13.6847H12.0801V24.7582H15.1371Z" fill="white"/>
<path d="M96.0043 10.2106C96.0043 11.3596 95.5813 12.2787 94.7352 12.9681C93.9021 13.6447 92.8022 13.983 91.4354 13.983C89.9515 13.983 88.7214 13.7085 87.7451 13.1596V10.6893C88.8645 11.4808 90.0881 11.8766 91.4159 11.8766C92.0146 11.8766 92.4963 11.7361 92.8608 11.4553C93.2252 11.1617 93.4075 10.7723 93.4075 10.2872C93.4075 10.0574 93.3619 9.85317 93.2708 9.67445C93.1797 9.49572 92.9909 9.317 92.7045 9.13828C92.4312 8.95955 92.2164 8.83189 92.0602 8.7553C91.917 8.6787 91.6111 8.53827 91.1425 8.33402C91.0123 8.27019 90.9147 8.22551 90.8496 8.19998C90.368 7.98296 89.9775 7.79147 89.6781 7.62551C89.3787 7.44679 89.0533 7.21062 88.7018 6.917C88.3504 6.62338 88.0835 6.27232 87.9013 5.86381C87.7321 5.4553 87.6475 4.98934 87.6475 4.46593C87.6475 3.36806 88.0575 2.48721 88.8776 1.82338C89.7106 1.15955 90.8106 0.827637 92.1774 0.827637C93.414 0.827637 94.4814 1.03827 95.3795 1.45955V3.79572C94.4033 3.22125 93.3619 2.93402 92.2555 2.93402C91.6437 2.93402 91.162 3.06806 90.8106 3.33615C90.4721 3.60423 90.3029 3.94891 90.3029 4.37019C90.3029 4.79147 90.4852 5.14253 90.8496 5.42338C91.2271 5.69147 91.7869 5.99147 92.5288 6.32338C93.0495 6.55317 93.4725 6.75742 93.798 6.93615C94.1234 7.1021 94.4749 7.33828 94.8523 7.64466C95.2429 7.95104 95.5292 8.32125 95.7115 8.7553C95.9067 9.17657 96.0043 9.66168 96.0043 10.2106Z" fill="#F3F3F3"/>
<path d="M78.4153 8.37234L78.2395 8.92766H81.9494L81.7736 8.35319C81.3311 6.97446 80.9666 5.81915 80.6802 4.88723C80.4069 3.94255 80.2376 3.34893 80.1726 3.10638L80.0945 2.7234C79.9773 3.3617 79.4176 5.24468 78.4153 8.37234ZM76.658 13.8298H74.0806L78.5324 0.923401H81.7151L86.1669 13.8298H83.5114L82.5742 10.9H77.5952L76.658 13.8298Z" fill="#F3F3F3"/>
<path d="M59.9465 13.8298H57.4863L58.5407 0.923401H61.3524L63.1487 5.61489C63.4611 6.40638 63.754 7.19787 64.0273 7.98936C64.3007 8.76808 64.496 9.34893 64.6131 9.73191L64.7888 10.3255C65.1924 8.99787 65.7521 7.42766 66.468 5.61489L68.3034 0.923401H71.1151L72.4038 13.8298H69.9435L69.4749 8.79361L69.1235 4.27446C68.6549 5.58936 68.0951 7.09574 67.4443 8.79361L65.6089 13.6383H63.9297L62.1334 8.79361L60.5909 4.33191C60.5909 4.95744 60.5063 6.44468 60.337 8.79361L59.9465 13.8298Z" fill="#F3F3F3"/>
<path d="M55.2542 13.8298H47.405V0.923401H55.1761V2.89574H49.8847V6.4H54.5903V8.35319H49.8847V11.8574H55.2542V13.8298Z" fill="#F3F3F3"/>
<path d="M36.4224 13.8298H33.9622V0.923401H36.7543L39.9174 6.30425C40.4381 7.1851 40.9002 8.00851 41.3037 8.77447C41.7203 9.52766 42.0001 10.0638 42.1433 10.383L42.3581 10.8617C42.254 9.80212 42.2019 8.28298 42.2019 6.30425V0.923401H44.6816V13.8298H41.87L38.6678 8.46808C38.1601 7.62553 37.698 6.82127 37.2815 6.05532C36.878 5.27659 36.5981 4.71489 36.4419 4.37021L36.2076 3.83404C36.3508 5.04681 36.4224 6.5851 36.4224 8.44893V13.8298Z" fill="#F3F3F3"/>
<path d="M31.068 13.8298H28.6078V0.923401H31.068V13.8298Z" fill="#F3F3F3"/>
<path d="M26.1598 13.217C25.3527 13.7276 24.2202 13.983 22.7623 13.983C20.8098 13.983 19.1957 13.383 17.92 12.183C16.6574 10.9702 16.0261 9.36806 16.0261 7.37657C16.0261 5.42338 16.6509 3.83402 17.9005 2.60848C19.1631 1.37019 20.7838 0.751038 22.7623 0.751038C24.2072 0.751038 25.3332 0.987208 26.1402 1.45955V3.81487C25.1509 3.25317 24.0575 2.97231 22.86 2.97231C21.6624 2.97231 20.6601 3.37444 19.853 4.1787C19.059 4.97019 18.662 6.03614 18.662 7.37657C18.662 8.717 19.059 9.78295 19.853 10.5744C20.6601 11.3659 21.708 11.7617 22.9966 11.7617C24.2332 11.7617 25.2876 11.4425 26.1598 10.8042V13.217Z" fill="#F3F3F3"/>
</svg>
