<svg width="157" height="45" viewBox="0 0 157 45" fill="none" xmlns="http://www.w3.org/2000/svg">
<rect y="0.815063" width="157" height="44" rx="20" fill="#3B8E74"/>
<path d="M25.728 17.7551C26.8053 17.7551 27.6693 18.0324 28.32 18.5871C28.9707 19.1417 29.296 19.8937 29.296 20.8431C29.296 21.7924 28.9653 22.5337 28.304 23.0671C27.6533 23.5897 26.7893 23.8511 25.712 23.8511L25.6 23.9311H23.008V28.3151H21.728V17.7551H25.728ZM25.712 22.7311C26.4693 22.7311 27.0293 22.5764 27.392 22.2671C27.7653 21.9471 27.952 21.4724 27.952 20.8431C27.952 20.2137 27.7653 19.7444 27.392 19.4351C27.0293 19.1151 26.4693 18.9551 25.712 18.9551H23.008V22.7311H25.712ZM26.448 22.9871L29.936 28.3151H28.416L25.376 23.6911L26.448 22.9871ZM35.207 28.4751C34.4497 28.4751 33.7723 28.3097 33.175 27.9791C32.5883 27.6484 32.1297 27.1737 31.799 26.5551C31.4683 25.9257 31.303 25.1791 31.303 24.3151C31.303 23.4511 31.4683 22.7097 31.799 22.0911C32.1297 21.4617 32.583 20.9817 33.159 20.6511C33.735 20.3204 34.391 20.1551 35.127 20.1551C35.8737 20.1551 36.5083 20.3151 37.031 20.6351C37.5643 20.9551 37.9697 21.3924 38.247 21.9471C38.5243 22.4911 38.663 23.1044 38.663 23.7871C38.663 23.9684 38.6577 24.1337 38.647 24.2831C38.6363 24.4324 38.6203 24.5657 38.599 24.6831H32.135V23.5471H38.039L37.383 23.6751C37.383 22.9071 37.1697 22.3151 36.743 21.8991C36.327 21.4831 35.7777 21.2751 35.095 21.2751C34.5723 21.2751 34.119 21.3977 33.735 21.6431C33.3617 21.8777 33.0683 22.2244 32.855 22.6831C32.6523 23.1311 32.551 23.6751 32.551 24.3151C32.551 24.9444 32.6577 25.4884 32.871 25.9471C33.0843 26.4057 33.383 26.7577 33.767 27.0031C34.1617 27.2377 34.631 27.3551 35.175 27.3551C35.7617 27.3551 36.2363 27.2431 36.599 27.0191C36.9723 26.7951 37.271 26.4911 37.495 26.1071L38.503 26.6991C38.3003 27.0617 38.039 27.3764 37.719 27.6431C37.4097 27.9097 37.0417 28.1177 36.615 28.2671C36.199 28.4057 35.7297 28.4751 35.207 28.4751ZM45.7694 23.1471C45.7694 22.5497 45.6094 22.0911 45.2894 21.7711C44.9694 21.4404 44.516 21.2751 43.9294 21.2751C43.3747 21.2751 42.9054 21.3977 42.5214 21.6431C42.1374 21.8777 41.8547 22.2617 41.6734 22.7951L40.6334 22.1551C40.8467 21.5577 41.2414 21.0777 41.8174 20.7151C42.3934 20.3417 43.108 20.1551 43.9614 20.1551C44.5374 20.1551 45.06 20.2564 45.5294 20.4591C45.9987 20.6511 46.3667 20.9497 46.6334 21.3551C46.9107 21.7497 47.0494 22.2617 47.0494 22.8911V26.7631C47.0494 27.1471 47.252 27.3391 47.6574 27.3391C47.86 27.3391 48.0574 27.3124 48.2494 27.2591L48.1854 28.2671C47.972 28.3737 47.6947 28.4271 47.3534 28.4271C47.044 28.4271 46.7667 28.3684 46.5214 28.2511C46.276 28.1337 46.084 27.9577 45.9454 27.7231C45.8067 27.4777 45.7374 27.1737 45.7374 26.8111V26.6511L46.0574 26.6991C45.9294 27.1151 45.7107 27.4564 45.4014 27.7231C45.092 27.9791 44.7454 28.1711 44.3614 28.2991C43.9774 28.4164 43.5987 28.4751 43.2254 28.4751C42.756 28.4751 42.3187 28.3951 41.9134 28.2351C41.508 28.0751 41.1827 27.8351 40.9374 27.5151C40.7027 27.1844 40.5854 26.7791 40.5854 26.2991C40.5854 25.7017 40.7827 25.2111 41.1774 24.8271C41.5827 24.4324 42.1427 24.1657 42.8574 24.0271L46.0254 23.4031V24.4591L43.4494 24.9871C42.9267 25.0937 42.5374 25.2431 42.2814 25.4351C42.0254 25.6271 41.8974 25.8937 41.8974 26.2351C41.8974 26.5657 42.0254 26.8377 42.2814 27.0511C42.548 27.2537 42.9214 27.3551 43.4014 27.3551C43.7107 27.3551 44.004 27.3177 44.2814 27.2431C44.5694 27.1577 44.8254 27.0351 45.0494 26.8751C45.2734 26.7044 45.4494 26.4964 45.5774 26.2511C45.7054 25.9951 45.7694 25.6964 45.7694 25.3551V23.1471ZM53.2799 28.4751C52.6185 28.4751 52.0105 28.3097 51.4559 27.9791C50.9012 27.6484 50.4585 27.1737 50.1279 26.5551C49.7972 25.9257 49.6319 25.1791 49.6319 24.3151C49.6319 23.4297 49.8079 22.6777 50.1599 22.0591C50.5119 21.4404 50.9759 20.9711 51.5519 20.6511C52.1279 20.3204 52.7465 20.1551 53.4079 20.1551C54.0692 20.1551 54.6399 20.3257 55.1199 20.6671C55.6105 21.0084 55.9359 21.4617 56.0959 22.0271L55.9359 22.1391V16.6351H57.2159V28.3151H56.0959L55.9839 26.3791L56.1599 26.2831C56.0852 26.7524 55.9039 27.1524 55.6159 27.4831C55.3385 27.8031 54.9919 28.0484 54.5759 28.2191C54.1705 28.3897 53.7385 28.4751 53.2799 28.4751ZM53.4079 27.3551C53.9199 27.3551 54.3625 27.2271 54.7359 26.9711C55.1199 26.7151 55.4132 26.3524 55.6159 25.8831C55.8292 25.4031 55.9359 24.8431 55.9359 24.2031C55.9359 23.5951 55.8292 23.0724 55.6159 22.6351C55.4132 22.1977 55.1252 21.8617 54.7519 21.6271C54.3892 21.3924 53.9625 21.2751 53.4719 21.2751C52.6612 21.2751 52.0319 21.5524 51.5839 22.1071C51.1359 22.6617 50.9119 23.3977 50.9119 24.3151C50.9119 25.2324 51.1305 25.9684 51.5679 26.5231C52.0052 27.0777 52.6185 27.3551 53.4079 27.3551ZM76.0923 17.7551V28.3151H74.8763V21.6751L75.0203 18.8911H75.0043L71.5323 28.3151H70.4443L66.9723 18.8911H66.9563L67.1003 21.6751V28.3151H65.8843V17.7551H67.8523L70.1723 24.1711L70.9723 26.8111H71.0043L71.8203 24.1871L74.1243 17.7551H76.0923ZM82.4875 20.1551C83.2448 20.1551 83.9115 20.3204 84.4875 20.6511C85.0742 20.9817 85.5328 21.4617 85.8635 22.0911C86.1942 22.7097 86.3595 23.4511 86.3595 24.3151C86.3595 25.1791 86.1942 25.9257 85.8635 26.5551C85.5328 27.1737 85.0742 27.6484 84.4875 27.9791C83.9115 28.3097 83.2448 28.4751 82.4875 28.4751C81.7408 28.4751 81.0742 28.3097 80.4875 27.9791C79.9008 27.6484 79.4422 27.1737 79.1115 26.5551C78.7808 25.9257 78.6155 25.1791 78.6155 24.3151C78.6155 23.4511 78.7808 22.7097 79.1115 22.0911C79.4422 21.4617 79.9008 20.9817 80.4875 20.6511C81.0742 20.3204 81.7408 20.1551 82.4875 20.1551ZM82.4875 21.2591C81.9435 21.2591 81.4795 21.3817 81.0955 21.6271C80.7115 21.8724 80.4128 22.2244 80.1995 22.6831C79.9968 23.1311 79.8955 23.6751 79.8955 24.3151C79.8955 24.9444 79.9968 25.4884 80.1995 25.9471C80.4128 26.4057 80.7115 26.7577 81.0955 27.0031C81.4795 27.2484 81.9435 27.3711 82.4875 27.3711C83.0315 27.3711 83.4955 27.2484 83.8795 27.0031C84.2635 26.7577 84.5568 26.4057 84.7595 25.9471C84.9728 25.4884 85.0795 24.9444 85.0795 24.3151C85.0795 23.6751 84.9728 23.1311 84.7595 22.6831C84.5568 22.2244 84.2635 21.8724 83.8795 21.6271C83.4955 21.3817 83.0315 21.2591 82.4875 21.2591ZM88.7693 28.3151V20.3151H89.8093L89.9853 21.6271C90.2093 21.1364 90.5346 20.7684 90.9613 20.5231C91.3986 20.2777 91.9266 20.1551 92.5453 20.1551C92.6839 20.1551 92.8333 20.1657 92.9933 20.1871C93.1639 20.2084 93.3079 20.2511 93.4253 20.3151L93.2013 21.4831C93.0839 21.4404 92.9559 21.4084 92.8173 21.3871C92.6786 21.3657 92.4813 21.3551 92.2253 21.3551C91.8946 21.3551 91.5586 21.4511 91.2173 21.6431C90.8866 21.8351 90.6093 22.1284 90.3853 22.5231C90.1613 22.9071 90.0493 23.3977 90.0493 23.9951V28.3151H88.7693ZM98.3945 28.4751C97.6372 28.4751 96.9598 28.3097 96.3625 27.9791C95.7758 27.6484 95.3172 27.1737 94.9865 26.5551C94.6558 25.9257 94.4905 25.1791 94.4905 24.3151C94.4905 23.4511 94.6558 22.7097 94.9865 22.0911C95.3172 21.4617 95.7705 20.9817 96.3465 20.6511C96.9225 20.3204 97.5785 20.1551 98.3145 20.1551C99.0612 20.1551 99.6958 20.3151 100.219 20.6351C100.752 20.9551 101.157 21.3924 101.435 21.9471C101.712 22.4911 101.851 23.1044 101.851 23.7871C101.851 23.9684 101.845 24.1337 101.835 24.2831C101.824 24.4324 101.808 24.5657 101.786 24.6831H95.3225V23.5471H101.227L100.571 23.6751C100.571 22.9071 100.357 22.3151 99.9305 21.8991C99.5145 21.4831 98.9652 21.2751 98.2825 21.2751C97.7598 21.2751 97.3065 21.3977 96.9225 21.6431C96.5492 21.8777 96.2558 22.2244 96.0425 22.6831C95.8398 23.1311 95.7385 23.6751 95.7385 24.3151C95.7385 24.9444 95.8452 25.4884 96.0585 25.9471C96.2718 26.4057 96.5705 26.7577 96.9545 27.0031C97.3492 27.2377 97.8185 27.3551 98.3625 27.3551C98.9492 27.3551 99.4238 27.2431 99.7865 27.0191C100.16 26.7951 100.459 26.4911 100.683 26.1071L101.691 26.6991C101.488 27.0617 101.227 27.3764 100.907 27.6431C100.597 27.9097 100.229 28.1177 99.8025 28.2671C99.3865 28.4057 98.9172 28.4751 98.3945 28.4751Z" fill="white"/>
<path d="M122 16.8151L128 22.8151L122 28.8151" stroke="#F3F3F3" stroke-width="2" stroke-linecap="round" stroke-linejoin="round"/>
</svg>
